<mxfile host="65bd71144e" scale="1" border="10">
    <diagram id="ossPbBaPFcq8k1a4Bj__" name="Page-1">
        <mxGraphModel dx="1431" dy="796" grid="1" gridSize="10" guides="1" tooltips="1" connect="1" arrows="1" fold="1" page="1" pageScale="1" pageWidth="827" pageHeight="1169" background="#ffffff" math="0" shadow="0">
            <root>
                <mxCell id="0"/>
                <mxCell id="1" parent="0"/>
                <mxCell id="4" value="" style="edgeStyle=none;html=1;entryX=0.5;entryY=0;entryDx=0;entryDy=0;" edge="1" parent="1" source="2" target="5">
                    <mxGeometry relative="1" as="geometry">
                        <mxPoint x="265" y="180" as="targetPoint"/>
                    </mxGeometry>
                </mxCell>
                <mxCell id="6" value="Notificatin to&lt;br&gt;&lt;span style=&quot;font-size: 12px; background-color: rgb(251, 251, 251);&quot;&gt;Substitute Employee&lt;/span&gt;" style="edgeLabel;html=1;align=center;verticalAlign=middle;resizable=0;points=[];" vertex="1" connectable="0" parent="4">
                    <mxGeometry x="-0.4114" y="-1" relative="1" as="geometry">
                        <mxPoint x="1" y="9" as="offset"/>
                    </mxGeometry>
                </mxCell>
                <mxCell id="2" value="Initiate Request&lt;br&gt;From Employee" style="whiteSpace=wrap;html=1;" vertex="1" parent="1">
                    <mxGeometry x="210" y="70" width="110" height="40" as="geometry"/>
                </mxCell>
                <mxCell id="9" value="" style="edgeStyle=none;html=1;entryX=0.5;entryY=0;entryDx=0;entryDy=0;" edge="1" parent="1" source="5" target="11">
                    <mxGeometry relative="1" as="geometry">
                        <mxPoint x="265" y="350" as="targetPoint"/>
                    </mxGeometry>
                </mxCell>
                <mxCell id="10" value="Agree" style="edgeLabel;html=1;align=center;verticalAlign=middle;resizable=0;points=[];" vertex="1" connectable="0" parent="9">
                    <mxGeometry x="-0.4" y="-1" relative="1" as="geometry">
                        <mxPoint x="1" y="5" as="offset"/>
                    </mxGeometry>
                </mxCell>
                <mxCell id="20" style="edgeStyle=orthogonalEdgeStyle;html=1;entryX=1;entryY=0.5;entryDx=0;entryDy=0;fontColor=#FFFFFF;exitX=1;exitY=0.5;exitDx=0;exitDy=0;" edge="1" parent="1" source="5" target="2">
                    <mxGeometry relative="1" as="geometry">
                        <Array as="points">
                            <mxPoint x="410" y="235"/>
                            <mxPoint x="410" y="90"/>
                        </Array>
                    </mxGeometry>
                </mxCell>
                <mxCell id="24" value="Denied By&lt;br&gt;Substitute Employee,&lt;br&gt;Request Other" style="edgeLabel;html=1;align=center;verticalAlign=middle;resizable=0;points=[];fontColor=#000000;" vertex="1" connectable="0" parent="20">
                    <mxGeometry x="-0.1394" y="2" relative="1" as="geometry">
                        <mxPoint y="-18" as="offset"/>
                    </mxGeometry>
                </mxCell>
                <mxCell id="5" value="Substitute&lt;br&gt;Employee&lt;br&gt;decision" style="rhombus;whiteSpace=wrap;html=1;" vertex="1" parent="1">
                    <mxGeometry x="215" y="190" width="100" height="90" as="geometry"/>
                </mxCell>
                <mxCell id="13" value="" style="edgeStyle=none;html=1;entryX=0.5;entryY=0;entryDx=0;entryDy=0;" edge="1" parent="1" source="11" target="15">
                    <mxGeometry relative="1" as="geometry">
                        <mxPoint x="265" y="535" as="targetPoint"/>
                    </mxGeometry>
                </mxCell>
                <mxCell id="14" value="Approval to HR Team" style="edgeLabel;html=1;align=center;verticalAlign=middle;resizable=0;points=[];" vertex="1" connectable="0" parent="13">
                    <mxGeometry x="-0.2421" y="2" relative="1" as="geometry">
                        <mxPoint as="offset"/>
                    </mxGeometry>
                </mxCell>
                <mxCell id="28" value="" style="edgeStyle=orthogonalEdgeStyle;html=1;fontColor=#000000;" edge="1" parent="1" source="11" target="27">
                    <mxGeometry relative="1" as="geometry"/>
                </mxCell>
                <mxCell id="29" value="Rejected" style="edgeLabel;html=1;align=center;verticalAlign=middle;resizable=0;points=[];fontColor=#000000;" vertex="1" connectable="0" parent="28">
                    <mxGeometry x="0.18" y="-3" relative="1" as="geometry">
                        <mxPoint x="-11" y="-3" as="offset"/>
                    </mxGeometry>
                </mxCell>
                <mxCell id="11" value="Review by manager" style="rhombus;whiteSpace=wrap;html=1;" vertex="1" parent="1">
                    <mxGeometry x="220" y="350" width="90" height="90" as="geometry"/>
                </mxCell>
                <mxCell id="19" value="" style="edgeStyle=none;html=1;fontColor=#FFFFFF;" edge="1" parent="1" source="15" target="18">
                    <mxGeometry relative="1" as="geometry"/>
                </mxCell>
                <mxCell id="15" value="HR Team Approved" style="whiteSpace=wrap;html=1;" vertex="1" parent="1">
                    <mxGeometry x="205" y="525" width="120" height="60" as="geometry"/>
                </mxCell>
                <mxCell id="18" value="End" style="ellipse;html=1;shape=endState;fillColor=#000000;strokeColor=#ff0000;fontColor=#FFFFFF;" vertex="1" parent="1">
                    <mxGeometry x="245" y="630" width="40" height="40" as="geometry"/>
                </mxCell>
                <mxCell id="27" value="End" style="ellipse;html=1;shape=endState;fillColor=#000000;strokeColor=#ff0000;fontColor=#FFFFFF;" vertex="1" parent="1">
                    <mxGeometry x="430" y="375" width="40" height="40" as="geometry"/>
                </mxCell>
            </root>
        </mxGraphModel>
    </diagram>
</mxfile>